<svg version="1.1" id="Calque_1" xmlns="http://www.w3.org/2000/svg" xmlns:xlink="http://www.w3.org/1999/xlink" x="0px" y="0px"
	 viewBox="0 0 38.6 31.5" style="enable-background:new 0 0 38.6 31.5;" xml:space="preserve">
<style type="text/css">
	.st0{fill:#141313;}
</style>
<g>
	<path class="st0" d="M31.2,0H7.5C5.2,0,3.3,1.9,3.3,4.2v16.4c0,2.3,1.8,4.2,4.1,4.2H15l-1.1,4.8h-1.6c-0.6,0-1,0.4-1,1
		c0,0.6,0.4,1,1,1h14.1c0.6,0,1-0.4,1-1c0-0.6-0.4-1-1-1h-1.7l-0.9-4.8h7.4c2.3,0,4.1-1.9,4.1-4.2V4.2C35.3,1.9,33.5,0,31.2,0z
		 M22.6,29.5h-6.7l1.1-4.8h4.7L22.6,29.5z M33.3,20.6c0,1.2-0.9,2.2-2.1,2.2h-8.4c-0.1,0-0.3,0-0.4,0c0,0,0,0,0,0h-5.9c0,0,0,0,0,0
		c-0.1,0-0.3,0-0.4,0H7.5c-1.2,0-2.1-1-2.1-2.2V4.2C5.3,3,6.3,2,7.5,2h23.7c1.2,0,2.1,1,2.1,2.2V20.6z"/>
	<path class="st0" d="M28,9C28,9,28,9,28,9l-7.5-3.9c-0.7-0.3-1.5-0.3-2.1,0l-7.7,4.1h0c-0.2,0.1-0.3,0.2-0.4,0.4
		c-0.2,0.4,0,0.9,0.4,1.1l3.2,1.5v4c0,0.7,0.3,1.3,0.7,1.8c1.1,1.2,2.7,2,4.4,2c0.1,0,0.2,0,0.4,0c1.8,0.1,3.5-0.6,4.8-1.9
		c0.5-0.5,0.7-1.2,0.7-1.9v-4l2.3-1.2V14c0,0.4,0.3,0.8,0.8,0.8c0.4,0,0.8-0.3,0.8-0.8V9.7C28.5,9.4,28.3,9.1,28,9z M23.2,16.1
		c0,0.3-0.1,0.7-0.3,0.9c-0.9,0.9-2.2,1.5-3.6,1.4h-0.1h-0.1c-1.4,0.1-2.7-0.5-3.6-1.5c-0.2-0.2-0.3-0.5-0.3-0.8v-3.3l3.2,1.5
		c0.3,0.1,0.6,0.2,1,0.2c0.4,0,0.7-0.1,1.1-0.3l2.7-1.4V16.1z M19.8,13c-0.2,0.1-0.5,0.1-0.7,0l-4.2-2c0,0,0,0-0.1,0l-2.4-1.1
		L19,6.4c0.2-0.1,0.5-0.1,0.7,0l6.4,3.3L19.8,13z"/>
</g>
</svg>
