<svg version="1.1" id="Calque_1" xmlns="http://www.w3.org/2000/svg" xmlns:xlink="http://www.w3.org/1999/xlink" x="0px" y="0px"
	 viewBox="0 0 38.6 31.7" style="enable-background:new 0 0 38.6 31.7;" xml:space="preserve">
<style type="text/css">
	.st0{fill:#141313;}
</style>
<g>
	<path class="st0" d="M31.2,0H7.5C5.2,0,3.3,1.8,3.3,4.1v16.1c0,2.3,1.8,4.1,4.1,4.1h7.8l-1.2,5.5h-1.5c-0.6,0-1,0.4-1,1
		c0,0.6,0.4,1,1,1h11.1h0h2.4c0.6,0,1-0.4,1-1c0-0.6-0.4-1-1-1h-1.6l-1-5.5h7.7c2.3,0,4.1-1.8,4.1-4.1V4.1C35.3,1.8,33.4,0,31.2,0z
		 M22.4,29.7h-6.3l1.2-5.3c0,0,0-0.1,0-0.1h4.1c0,0,0,0.1,0,0.1L22.4,29.7z M33.3,20.2c0,1.2-0.9,2.1-2.1,2.1H7.5
		c-1.2,0-2.1-0.9-2.1-2.1V4.1c0-1.2,1-2.1,2.1-2.1l23.7,0c1.2,0,2.1,0.9,2.1,2.1V20.2z"/>
	<path class="st0" d="M26,3.9c-0.1,0-0.2,0-0.3,0L21,4.7c0,0-0.1,0-0.1,0c-0.1,0-0.2,0-0.3,0.1c-1.4,0.8-2.6,1.8-3.6,3.1l-2.2-0.1
		c-0.4,0-0.8,0.1-1.1,0.4l-2.4,2.3c-0.2,0.1-0.3,0.3-0.3,0.5c-0.2,0.6,0.2,1.3,0.8,1.4l2.2,0.6c0,0.7,0,1.8,0.6,2.7l-1,1
		c0,0,0,0,0,0c-0.3,0.3-0.3,0.8,0,1.1c0.1,0.1,0.3,0.2,0.5,0.2c0.2,0,0.4-0.1,0.5-0.2l1.1-1.1c0.8,0.5,1.7,0.8,2.7,0.8l0.5,2
		c0.1,0.4,0.4,0.7,0.8,0.8c0.1,0,0.2,0,0.3,0.1c0.3,0,0.5-0.1,0.8-0.3l2.4-2.1c0.3-0.3,0.5-0.7,0.5-1.1v-2.5
		c1.2-1.1,2.3-2.4,3.1-3.8c0.1-0.1,0.1-0.2,0.1-0.4c0,0,0-0.1,0-0.1l0.6-4.6c0-0.1,0-0.1,0-0.2C27.6,4.6,26.9,3.9,26,3.9z M26,5.4
		C26,5.4,26,5.4,26,5.4C26.1,5.4,26.1,5.5,26,5.4l-0.3,3.1v0c-0.8-0.9-1.7-1.8-2.7-2.6L26,5.4z M14.8,9.3L16,9.3
		c-0.7,0.9-1.1,1.7-1.4,2.2l-1.6-0.5L14.8,9.3z M20.3,18.6l-0.4-1.4c0.8-0.5,1.6-1,2.3-1.5v1.3L20.3,18.6z M22.5,13.6
		c-1.2,0.9-2.4,1.7-3.6,2.5c-0.7,0-1.3-0.2-1.9-0.5l4.1-4c0,0,0,0,0,0c0.3-0.3,0.3-0.8,0-1.1c0,0,0,0,0,0c-0.3-0.3-0.8-0.3-1.1,0
		l-4.1,4.1c-0.3-0.7-0.2-1.5-0.2-1.9C16,12,18.2,8.1,21,6.4c1.6,1.1,3.1,2.5,4.3,4C24.4,11.5,23.5,12.6,22.5,13.6z"/>
</g>
</svg>
