<svg xmlns="http://www.w3.org/2000/svg" width="15" height="12.167" viewBox="0 0 15 12.167">
  <path id="Tracé_2" data-name="Tracé 2" d="M42.75,14.167a8.672,8.672,0,0,0,8.75-8.75V5A6.774,6.774,0,0,0,53,3.417a6.918,6.918,0,0,1-1.75.5A3.242,3.242,0,0,0,52.583,2.25,7.644,7.644,0,0,1,50.667,3a2.976,2.976,0,0,0-2.25-1,3.131,3.131,0,0,0-3.083,3.083,1.625,1.625,0,0,0,.083.667A8.616,8.616,0,0,1,39.083,2.5a3.191,3.191,0,0,0-.417,1.583A3.311,3.311,0,0,0,40,6.667a2.809,2.809,0,0,1-1.417-.417h0a3.046,3.046,0,0,0,2.5,3,2.569,2.569,0,0,1-.833.083,1.418,1.418,0,0,1-.583-.083,3.157,3.157,0,0,0,2.917,2.167A6.292,6.292,0,0,1,38.75,12.75a2.307,2.307,0,0,1-.75-.083,7.866,7.866,0,0,0,4.75,1.5" transform="translate(-38 -2)" fill="#5D5D5D" fill-rule="evenodd"/>
</svg>
