<?xml version="1.0" encoding="utf-8"?>
<!-- Generator: Adobe Illustrator 25.4.1, SVG Export Plug-In . SVG Version: 6.00 Build 0)  -->
<svg version="1.1" id="Calque_1" xmlns="http://www.w3.org/2000/svg" xmlns:xlink="http://www.w3.org/1999/xlink" x="0px" y="0px"
	 viewBox="0 0 734.7 805.5" style="enable-background:new 0 0 734.7 805.5;" xml:space="preserve">
<style type="text/css">
	.st0{fill:url(#Tracé_262_00000129166569427101875580000009088740548378405507_);}
</style>
<linearGradient id="Tracé_262_00000054235986562699078310000007499679893104296330_" gradientUnits="userSpaceOnUse" x1="68.964" y1="823.8176" x2="69.939" y2="822.9346" gradientTransform="matrix(734.6987 0 0 -805.4563 -50625.2109 663589.375)">
	<stop  offset="0" style="stop-color:#E4E4E3"/>
	<stop  offset="1" style="stop-color:#AFAEAD"/>
</linearGradient>
<path id="Tracé_262" style="fill:url(#Tracé_262_00000054235986562699078310000007499679893104296330_);" d="M285.4,404.5
	l-0.3,76.2c0,14-0.8,24-3.5,30.9c-4.2,9-14.3,17.1-25,19.4c-12.8,2.8-23.9-4-26.7-16.6c-0.8-3.9-1-14.4-0.9-21.4l0.4-177.9
	c0-14,0.8-17.5,3.9-24.4c3.7-9.3,14-17,24.6-19.4c12.8-2.8,23.9,4,26.7,16.6c1,4.9,1.4,9.9,0.9,14.9l-0.1,63L285.4,404.5z
	 M126.1,521.2V268.7l223.3-126.2V0L60.3,163.5C23.1,184.5,0,224.3,0,267.6v326.1L126.1,521.2z M18,621.5l287.4,167.8
	c37.5,21.6,83.5,21.5,120.3-0.2l290.9-167.6l-126.1-72.4L367.4,679.5L144.1,549.1L18,621.5z M297,408.9l61.2,96.3
	c3.1,4.3,4.2,6.1,4.2,6.1s-3-17,2.4-28.2c3.5-7.4,13.3-17.1,27.2-17.5c4.6-0.1,9.3,0.2,13.9,0.7l-39.2-55.7
	c-4.6-8.7-3.7-19.4,2.5-27.8l50.7-69.5c6.2-8.5,7.1-19.1,2.5-27.8l0,0c-9.9-18.8-38.8-19.6-52-1.4l-70.8,97.1
	C293.3,389.6,292.4,400.2,297,408.9L297,408.9z M505.7,432.9c0,39.3-6.7,55.1-14.6,66.4c-8.9,12.6-21.6,29.5-56.2,34.1
	c-32.8,4.4-60.8-4.8-65-23.4c-3.6-15.8,5.8-34,21.9-36.9c5.6-1,10.9-1.3,21.1,1c9.7,2.2,11.5,2.8,17.7,2.4
	c12.6-0.9,19.3-10.3,19.2-30.9L449,311.9c-0.1-14,0.7-15.8,3.3-22.7c4-9.4,14.2-17.2,24.8-19.6c12.8-2.9,24,3.8,26.8,16.4
	c0.9,3.9,1.3,5.8,1.1,13.2L505.7,432.9z M698.9,99.8h-52.5V50.1c0-14.1-7.7-21.3-22.9-21.3c-15.6,0-22.9,6.8-22.9,21.3v49.7h-49.1
	c-11.4,0-24.9,3.5-24.9,20c0,9.7,4.3,21.3,24.9,21.3h49.1V189c0,14.3,7.3,21.3,22.2,21.3c15.9,0,23.6-7,23.6-21.3v-47.8h52.5
	c9.3,0,24.9-2.7,24.9-20.6C723.8,106.8,715.4,99.8,698.9,99.8z M674.5,163.5l-13.3-7.5v33c0,22.6-14.3,36-38.3,36
	c-23.2,0-37-13.5-37-36v-33.1h-34.4c-24.5,0-39.7-13.8-39.7-36c0-17.3,9.9-29.3,26.6-33.3L385.4,0v142.6l223.3,126.2v252.5
	l126.1,72.4V267.6C734.7,224.3,711.6,184.5,674.5,163.5L674.5,163.5z"/>
</svg>
