<svg xmlns="http://www.w3.org/2000/svg" xmlns:xlink="http://www.w3.org/1999/xlink" width="734.702" height="805.454" viewBox="0 0 734.702 805.454">
  <defs>
    <linearGradient id="linear-gradient" x1="0.058" y1="0.05" x2="1.033" y2="0.933" gradientUnits="objectBoundingBox">
      <stop offset="0" stop-color="#dedede"/>
      <stop offset="1" stop-color="#9f9d9c"/>
    </linearGradient>
  </defs>
  <path id="Tracé_262" data-name="Tracé 262" d="M3546.792,1276.652l-.261,76.249c-.019,13.991-.8,24.029-3.529,30.883-4.184,9.012-14.333,17.119-24.978,19.445-12.846,2.807-23.941-3.971-26.7-16.618-.844-3.864-.955-14.444-.945-21.44l.363-177.861c.02-13.991.8-17.474,3.9-24.409,3.74-9.283,13.967-17.038,24.611-19.364,12.847-2.807,23.941,3.971,26.7,16.618a51.134,51.134,0,0,1,.945,14.885l-.088,62.96ZM3387.43,1393.439V1140.923l223.254-126.17V872.193L3321.61,1035.65c-37.191,21.03-60.251,60.885-60.251,104.135v326.092Zm-108.045,100.3L3566.819,1661.5c37.47,21.6,83.515,21.528,120.309-.19l290.907-167.572-126.07-72.437L3628.8,1551.707,3405.456,1421.3Zm278.976-212.63,61.206,96.286c3.077,4.334,4.2,6.084,4.2,6.084s-2.979-16.976,2.352-28.224c3.518-7.423,13.315-17.145,27.194-17.473a105.074,105.074,0,0,1,13.87.684L3628,1282.74c-4.621-8.749-3.665-19.358,2.507-27.812l50.7-69.455c6.171-8.454,7.127-19.063,2.506-27.812h0c-9.917-18.776-38.791-19.562-52.03-1.418l-70.819,97.055C3554.7,1261.752,3553.741,1272.358,3558.361,1281.1Zm208.686,24c0,39.281-6.7,55.148-14.624,66.364-8.9,12.595-21.614,29.48-56.214,34.123-32.8,4.4-60.836-4.809-65.048-23.4-3.577-15.781,5.791-34.02,21.882-36.852,5.611-.988,10.88-1.268,21.065,1.037,9.694,2.194,11.543,2.8,17.678,2.365,12.573-.883,19.253-10.3,19.2-30.936l-.634-133.7c-.088-13.991.662-15.84,3.341-22.716,4.034-9.395,14.2-17.229,24.827-19.637,12.824-2.906,23.971,3.786,26.832,16.411.875,3.858,1.3,5.809,1.06,13.238ZM3960.237,972.03h-52.475V922.314c0-14.114-7.709-21.27-22.917-21.27-15.636,0-22.918,6.759-22.918,21.27V972.03H3812.82c-11.375,0-24.938,3.474-24.938,20.025,0,9.7,4.327,21.269,24.938,21.269h49.108v47.848c0,14.313,7.276,21.27,22.245,21.27,15.874,0,23.59-6.958,23.59-21.27v-47.848h52.475c9.313,0,24.938-2.682,24.938-20.646C3985.175,978.977,3976.785,972.03,3960.237,972.03Zm-24.428,63.62-13.3-7.521v33.042c0,22.553-14.333,36.018-38.339,36.018-23.163,0-36.993-13.465-36.993-36.018v-33.1h-34.36c-24.479,0-39.685-13.8-39.685-36.016,0-17.326,9.93-29.34,26.646-33.322l-153.045-86.539v142.561l223.254,126.17v252.516l126.071,72.437V1139.785C3996.061,1096.535,3973,1056.68,3935.81,1035.65Z" transform="translate(-3261.359 -872.193)" fill="url(#linear-gradient)"/>
</svg>