<svg xmlns="http://www.w3.org/2000/svg" width="117.89" height="129.244" viewBox="0 0 117.89 129.244">
  <g id="Groupe_30" data-name="Groupe 30" transform="translate(-2297.876 -2817.504)">
    <g id="Groupe_20" data-name="Groupe 20" transform="translate(2297.876 2817.504)">
      <g id="Groupe_19" data-name="Groupe 19" transform="translate(0 0)">
        <g id="Groupe_18" data-name="Groupe 18">
          <path id="Tracé_244" data-name="Tracé 244" d="M2318.105,2901.143v-40.519l35.823-20.245V2817.5l-46.385,26.228a19.175,19.175,0,0,0-9.668,16.71v52.325Z" transform="translate(-2297.876 -2817.504)" fill="#e3261f"/>
        </g>
      </g>
    </g>
    <g id="Groupe_23" data-name="Groupe 23" transform="translate(2300.769 2905.614)">
      <g id="Groupe_22" data-name="Groupe 22" transform="translate(0 0)">
        <g id="Groupe_21" data-name="Groupe 21">
          <path id="Tracé_245" data-name="Tracé 245" d="M2329.106,3152.6l35.837,20.926,35.809-20.926,20.23,11.624-46.679,26.889a19.174,19.174,0,0,1-19.3.03l-46.122-26.919Z" transform="translate(-2308.877 -3152.604)" fill="#e3261f"/>
        </g>
      </g>
    </g>
    <g id="Groupe_25" data-name="Groupe 25" transform="translate(2334.624 2860.943)">
      <g id="Groupe_24" data-name="Groupe 24" transform="translate(0 0)">
        <path id="Tracé_246" data-name="Tracé 246" d="M2446.689,3004.173l-.042,12.235a14.451,14.451,0,0,1-.566,4.955,6.075,6.075,0,0,1-4.008,3.12,3.423,3.423,0,0,1-4.285-2.667,24.528,24.528,0,0,1-.152-3.44l.058-28.54a7.7,7.7,0,0,1,.625-3.917,5.675,5.675,0,0,1,3.949-3.107,3.423,3.423,0,0,1,4.285,2.667,8.218,8.218,0,0,1,.152,2.388l-.014,10.1" transform="translate(-2437.636 -2982.713)" fill="#e3261f"/>
      </g>
    </g>
    <path id="Tracé_247" data-name="Tracé 247" d="M2477.823,3004.972l9.821,15.45c.494.7.674.976.674.976a9.023,9.023,0,0,1,.377-4.529,5.124,5.124,0,0,1,4.364-2.8,16.908,16.908,0,0,1,2.225.11l-6.288-8.941a4.193,4.193,0,0,1,.4-4.463l8.136-11.145a4.194,4.194,0,0,0,.4-4.463h0c-1.592-3.012-6.225-3.139-8.349-.228l-11.364,15.574A4.193,4.193,0,0,0,2477.823,3004.972Z" transform="translate(-132.29 -121.854)" fill="#e3261f"/>
    <g id="Groupe_27" data-name="Groupe 27" transform="translate(2357.093 2860.65)">
      <g id="Groupe_26" data-name="Groupe 26">
        <path id="Tracé_248" data-name="Tracé 248" d="M2545.016,3007.918c0,6.3-1.075,8.849-2.346,10.649-1.428,2.021-3.468,4.73-9.02,5.475-5.263.706-9.762-.771-10.438-3.754-.573-2.533.929-5.459,3.512-5.914a7.646,7.646,0,0,1,3.38.166,7.835,7.835,0,0,0,2.837.379c2.018-.141,3.089-1.653,3.081-4.963l-.1-21.454a7.243,7.243,0,0,1,.536-3.645,5.887,5.887,0,0,1,3.984-3.151,3.423,3.423,0,0,1,4.305,2.634,6.528,6.528,0,0,1,.17,2.125Z" transform="translate(-2523.09 -2981.599)" fill="#e3261f"/>
      </g>
    </g>
    <path id="Tracé_249" data-name="Tracé 249" d="M2646.852,2846.5h-8.42v-7.978c0-2.265-1.238-3.413-3.677-3.413-2.509,0-3.678,1.084-3.678,3.413v7.978h-7.88c-1.825,0-4,.557-4,3.213,0,1.557.695,3.413,4,3.413h7.88v7.678c0,2.3,1.168,3.413,3.57,3.413,2.547,0,3.785-1.116,3.785-3.413v-7.678h8.42c1.494,0,4-.43,4-3.313C2650.853,2847.616,2649.507,2846.5,2646.852,2846.5Z" transform="translate(-236.833 -12.978)" fill="#e3261f"/>
    <g id="Groupe_29" data-name="Groupe 29" transform="translate(2359.713 2817.504)">
      <g id="Groupe_28" data-name="Groupe 28" transform="translate(0 0)">
        <path id="Tracé_250" data-name="Tracé 250" d="M2579.443,2843.732l-2.134-1.206v5.3c0,3.619-2.3,5.78-6.152,5.78-3.717,0-5.936-2.161-5.936-5.78v-5.311h-5.513c-3.928,0-6.368-2.214-6.368-5.779a5.2,5.2,0,0,1,4.276-5.347l-24.558-13.886v22.875l35.823,20.245v40.519l20.229,11.624v-52.325A19.176,19.176,0,0,0,2579.443,2843.732Z" transform="translate(-2533.058 -2817.504)" fill="#e3261f"/>
      </g>
    </g>
  </g>
</svg>
