<?xml version="1.0" encoding="utf-8"?>
<!-- Generator: Adobe Illustrator 25.4.1, SVG Export Plug-In . SVG Version: 6.00 Build 0)  -->
<svg version="1.1" id="Calque_1" xmlns="http://www.w3.org/2000/svg" xmlns:xlink="http://www.w3.org/1999/xlink" x="0px" y="0px"
	 viewBox="0 0 38.6 31.1" style="enable-background:new 0 0 38.6 31.1;" xml:space="preserve">
<style type="text/css">
	.st0{fill:#141313;}
</style>
<g>
	<path class="st0" d="M34,3.4h-0.8c-1.1-2-3.2-3.4-5.6-3.4H11.7C9.2,0,7.1,1.4,6,3.5c0,0-0.1,0-0.1,0H4.6C2.1,3.4,0,5.5,0,8v15.1
		c0,2.5,2.1,4.6,4.6,4.6H6c1.1,2,3.2,3.4,5.6,3.4h15.9c2.5,0,4.6-1.4,5.6-3.4H34c2.5,0,4.6-2.1,4.6-4.6V8C38.6,5.5,36.6,3.4,34,3.4z
		 M4.6,25.7c-1.4,0-2.6-1.2-2.6-2.6V8c0-1.4,1.2-2.6,2.6-2.6h0.8c0,0.3-0.1,0.6-0.1,0.9v18.4c0,0.3,0,0.6,0.1,0.9H4.6z M27.6,29.1
		H11.7c-2.4,0-4.4-2-4.4-4.4V6.4C7.3,4,9.3,2,11.7,2h15.9C30,2,32,4,32,6.4v18.4c0,0.5-0.1,0.9-0.2,1.4c-0.1,0.1-0.1,0.3-0.2,0.4
		C30.9,28.1,29.4,29.1,27.6,29.1z M36.6,23.1c0,1.4-1.2,2.6-2.6,2.6h-0.1c0-0.3,0.1-0.6,0.1-0.9V6.4c0-0.3,0-0.6-0.1-0.9H34
		c1.4,0,2.6,1.2,2.6,2.6V23.1z"/>
	<path class="st0" d="M24.6,13.6L17,9.1c-0.3-0.2-0.7-0.3-1.2-0.3c-1.3,0-2.3,1-2.3,2.3v9c0,1.3,1,2.3,2.3,2.3
		c0.4,0,0.8-0.1,1.2-0.3l7.6-4.5c0.3-0.2,0.6-0.5,0.8-0.8C26.1,15.6,25.7,14.2,24.6,13.6z M23.6,15.8L16,20.3c0,0-0.1,0-0.1,0
		c-0.2,0-0.3-0.1-0.3-0.3v-9c0-0.2,0.1-0.3,0.3-0.3c0.1,0,0.1,0,0.1,0l7.6,4.5c0,0,0.1,0.1,0.1,0.1C23.8,15.5,23.8,15.7,23.6,15.8z"
		/>
</g>
</svg>
